mtllib ItmHomeRunBat.mtl

v 0.000000 -2.522827 0.442871
v 0.221436 -2.522827 -0.383545
v 0.221436 -2.522827 0.383545
v 0.000000 -2.522827 -0.442871
v -0.221436 -2.522827 0.383545
v -0.221436 -2.522827 -0.383545
v -0.383545 -2.522827 0.221436
v -0.383545 -2.522827 -0.221436
v -0.442871 -2.522827 0.000000
v -0.620483 -2.400879 -0.358276
v -0.716553 -2.400879 0.000000
v -0.620483 -2.174316 -0.358276
v -0.716553 -2.174316 0.000000
v -0.383545 -1.929810 -0.221436
v -0.442871 -1.929810 0.000000
v -0.383545 -1.929810 0.221436
v -0.620483 -2.174316 0.358276
v -0.358276 -2.174316 0.620483
v -0.358276 -2.400879 0.620483
v 0.000000 -2.400879 0.716553
v 0.221436 -2.522827 0.383545
v -0.221436 -1.929810 0.383545
v 0.000000 -2.174316 0.716553
v 0.358276 -2.400879 0.620483
v 0.383545 -2.522827 0.221436
v 0.383545 -2.522827 -0.221436
v 0.442871 -2.522827 0.000000
v 0.716553 -2.400879 0.000000
v 0.620483 -2.400879 0.358276
v 0.620483 -2.174316 0.358276
v 0.358276 -2.174316 0.620483
v 0.221436 -1.929810 0.383545
v 0.000000 -1.929810 0.442871
v 0.221436 -2.522827 -0.383545
v 0.620483 -2.400879 -0.358276
v 0.358276 -2.400879 -0.620483
v 0.620483 -2.174316 -0.358276
v 0.358276 -2.174316 -0.620483
v 0.383545 -1.929810 -0.221436
v 0.221436 -1.929810 -0.383545
v 0.383545 -1.929810 0.221436
v 0.358276 -2.400879 -0.620483
v 0.000000 -2.400879 -0.716553
v -0.358276 -2.400879 -0.620483
v 0.358276 -2.174316 -0.620483
v 0.000000 -2.174316 -0.716553
v -0.358276 -2.174316 -0.620483
v 0.221436 -1.929810 -0.383545
v 0.000000 -1.929810 -0.442871
v -0.221436 -1.929810 -0.383545
v 0.221436 -1.929810 0.383545
v 0.716553 -2.174316 0.000000
v 0.442871 -1.929810 0.000000
v -0.620483 -2.400879 0.358276
v 0.184326 1.603882 -0.319336
v 0.000000 2.511719 -0.467285
v 0.233643 2.511719 -0.404663
v 0.000000 1.603882 -0.368652
v -0.233643 2.511719 -0.404663
v -0.184326 1.603882 -0.319336
v -0.404663 2.511719 -0.233643
v -0.319336 1.603882 -0.184326
v -0.467285 2.511719 0.000000
v -0.368652 1.603882 0.000000
v -0.404663 2.511719 0.233643
v -0.319336 1.603882 0.184326
v -0.233643 2.511719 0.404663
v -0.184326 1.603882 0.319336
v 0.000000 2.511719 0.467285
v 0.000000 1.603882 0.368652
v 0.233643 2.511719 -0.404663
v 0.319336 1.603882 -0.184326
v 0.184326 1.603882 -0.319336
v 0.404663 2.511719 -0.233643
v 0.368652 1.603882 0.000000
v 0.467285 2.511719 0.000000
v 0.319336 1.603882 0.184326
v 0.404663 2.511719 0.233643
v 0.184326 1.603882 0.319336
v 0.233643 2.511719 0.404663

vt 0.500000 0.049988
vt -1.333313 0.049988
vt -0.666687 0.049988
vt -0.500000 0.049988
vt 0.333313 0.049988
vt -0.333313 0.049988
vt 0.166687 0.049988
vt -0.166687 0.049988
vt 0.000000 0.049988
vt -0.166687 0.255493
vt 0.000000 0.255493
vt -0.166687 0.637695
vt 0.000000 0.637695
vt -0.166687 1.049988
vt 0.000000 1.049988
vt 0.166687 1.049988
vt 0.166687 0.637695
vt 0.333313 0.637695
vt 0.333313 0.255493
vt 0.500000 0.255493
vt 0.666687 0.049988
vt 0.333313 1.049988
vt 0.500000 0.637695
vt 0.666687 0.255493
vt 0.833313 0.049988
vt 1.166687 0.049988
vt 1.000000 0.049988
vt 1.000000 0.255493
vt 0.833313 0.255493
vt 0.833313 0.637695
vt 0.666687 0.637695
vt 0.666687 1.049988
vt 0.500000 1.049988
vt 1.333313 0.049988
vt 1.166687 0.255493
vt 1.333313 0.255493
vt 1.166687 0.637695
vt 1.333313 0.637695
vt 1.166687 1.049988
vt 1.333313 1.049988
vt 0.833313 1.049988
vt -1.333313 0.255493
vt -0.500000 0.255493
vt -0.333313 0.255493
vt -1.333313 0.637695
vt -0.500000 0.637695
vt -0.333313 0.637695
vt -1.333313 1.049988
vt -0.500000 1.049988
vt -0.333313 1.049988
vt -0.666687 1.049988
vt 1.000000 0.637695
vt 1.000000 1.049988
vt 0.166687 0.255493
vt -1.333313 0.000183
vt -0.500000 0.511902
vt -1.333313 0.511902
vt -0.500000 0.000183
vt -0.333313 0.511902
vt -0.333313 0.000183
vt -0.166687 0.511902
vt -0.166687 0.000183
vt 0.000000 0.511902
vt 0.000000 0.000183
vt 0.166687 0.511902
vt 0.166687 0.000183
vt 0.333313 0.511902
vt 0.333313 0.000183
vt 0.500000 0.511902
vt 0.500000 0.000183
vt 1.333313 0.511902
vt 1.166687 0.000183
vt 1.333313 0.000183
vt 1.166687 0.511902
vt 1.000000 0.000183
vt 1.000000 0.511902
vt 0.833313 0.000183
vt 0.833313 0.511902
vt 0.666687 0.000183
vt 0.666687 0.511902

vn 0.000000 -0.978270 0.207336
vn 0.103638 -0.978272 -0.179565
vn 0.103638 -0.978272 0.179565
vn 0.000000 -0.978270 -0.207336
vn -0.103638 -0.978272 0.179565
vn -0.103638 -0.978272 -0.179565
vn -0.179565 -0.978272 0.103638
vn -0.179565 -0.978272 -0.103638
vn -0.276011 -0.961155 0.000000
vn -0.721865 -0.552431 -0.416810
vn -0.833559 -0.552430 0.000000
vn -0.788961 0.412364 -0.455517
vn -0.911022 0.412358 0.000000
vn -0.306330 0.935348 -0.176877
vn -0.469292 0.883043 0.000000
vn -0.306330 0.935348 0.176877
vn -0.788961 0.412364 0.455517
vn -0.455517 0.412364 0.788961
vn -0.416810 -0.552431 0.721865
vn 0.000000 -0.552430 0.833559
vn 0.103638 -0.978272 0.179565
vn -0.176877 0.935348 0.306330
vn 0.000000 0.412358 0.911022
vn 0.416810 -0.552431 0.721865
vn 0.179565 -0.978272 0.103638
vn 0.179565 -0.978272 -0.103638
vn 0.276011 -0.961155 0.000000
vn 0.833559 -0.552430 0.000000
vn 0.721865 -0.552431 0.416810
vn 0.788961 0.412364 0.455517
vn 0.455517 0.412364 0.788961
vn 0.176877 0.935348 0.306330
vn 0.000000 0.935340 0.353751
vn 0.103638 -0.978272 -0.179565
vn 0.721865 -0.552431 -0.416810
vn 0.416810 -0.552431 -0.721865
vn 0.788961 0.412364 -0.455517
vn 0.455517 0.412364 -0.788961
vn 0.306330 0.935348 -0.176877
vn 0.176877 0.935348 -0.306330
vn 0.306330 0.935348 0.176877
vn 0.416810 -0.552431 -0.721865
vn 0.000000 -0.552430 -0.833559
vn -0.416810 -0.552431 -0.721865
vn 0.455517 0.412364 -0.788961
vn 0.000000 0.412358 -0.911022
vn -0.455517 0.412364 -0.788961
vn 0.176877 0.935348 -0.306330
vn 0.000000 0.935340 -0.353751
vn -0.176877 0.935348 -0.306330
vn 0.176877 0.935348 0.306330
vn 0.911022 0.412358 0.000000
vn 0.469292 0.883043 0.000000
vn -0.721865 -0.552431 0.416810
vn 0.499144 -0.058227 -0.864560
vn 0.000000 -0.100894 -0.994897
vn 0.497425 -0.100950 -0.861613
vn 0.000000 -0.058228 -0.998303
vn -0.497425 -0.100950 -0.861613
vn -0.499144 -0.058227 -0.864560
vn -0.861613 -0.100950 -0.497425
vn -0.864560 -0.058227 -0.499144
vn -0.994897 -0.100894 0.000000
vn -0.998303 -0.058228 0.000000
vn -0.861613 -0.100950 0.497425
vn -0.864560 -0.058227 0.499144
vn -0.497425 -0.100950 0.861613
vn -0.499144 -0.058227 0.864560
vn 0.000000 -0.100894 0.994897
vn 0.000000 -0.058228 0.998303
vn 0.497425 -0.100950 -0.861613
vn 0.864560 -0.058227 -0.499144
vn 0.499144 -0.058227 -0.864560
vn 0.861613 -0.100950 -0.497425
vn 0.998303 -0.058228 0.000000
vn 0.994891 -0.100954 0.000000
vn 0.864560 -0.058227 0.499144
vn 0.861613 -0.100950 0.497425
vn 0.499144 -0.058227 0.864560
vn 0.497425 -0.100950 0.861613

g polygon0
s 1
usemtl mat1
f 1/1/1 2/2/2 3/3/3
f 1/1/1 4/4/4 2/2/2
f 5/5/5 4/4/4 1/1/1
f 5/5/5 6/6/6 4/4/4
f 7/7/7 6/6/6 5/5/5
f 7/7/7 8/8/8 6/6/6
f 9/9/9 8/8/8 7/7/7
f 9/9/9 10/10/10 8/8/8
f 11/11/11 10/10/10 9/9/9
f 11/11/11 12/12/12 10/10/10
f 13/13/13 12/12/12 11/11/11
f 13/13/13 14/14/14 12/12/12
f 15/15/15 14/14/14 13/13/13
f 15/15/15 16/16/16 14/14/14
f 17/17/17 16/16/16 15/15/15
f 17/17/17 18/18/18 16/16/16
f 19/19/19 18/18/18 17/17/17
f 19/19/19 20/20/20 18/18/18
f 1/1/1 20/20/20 19/19/19
f 1/1/1 21/21/21 20/20/20
f 18/18/18 22/22/22 16/16/16
f 18/18/18 23/23/23 22/22/22
f 20/20/20 23/23/23 18/18/18
f 20/20/20 24/24/24 23/23/23
f 21/21/21 24/24/24 20/20/20
f 21/21/21 25/25/25 24/24/24
f 26/26/26 25/25/25 21/21/21
f 26/26/26 27/27/27 25/25/25
f 28/28/28 27/27/27 26/26/26
f 28/28/28 29/29/29 27/27/27
f 30/30/30 29/29/29 28/28/28
f 30/30/30 31/31/31 29/29/29
f 32/32/32 31/31/31 30/30/30
f 32/32/32 33/33/33 31/31/31
f 34/34/34 26/26/26 21/21/21
f 34/34/34 35/35/35 26/26/26
f 36/36/36 35/35/35 34/34/34
f 36/36/36 37/37/37 35/35/35
f 38/38/38 37/37/37 36/36/36
f 38/38/38 39/39/39 37/37/37
f 40/40/40 39/39/39 38/38/38
f 40/40/40 41/41/41 39/39/39
f 32/32/32 41/41/41 40/40/40
f 32/32/32 30/30/30 41/41/41
f 4/4/4 42/42/42 2/2/2
f 4/4/4 43/43/43 42/42/42
f 6/6/6 43/43/43 4/4/4
f 6/6/6 44/44/44 43/43/43
f 8/8/8 44/44/44 6/6/6
f 8/8/8 10/10/10 44/44/44
f 43/43/43 45/45/45 42/42/42
f 43/43/43 46/46/46 45/45/45
f 44/44/44 46/46/46 43/43/43
f 44/44/44 47/47/47 46/46/46
f 10/10/10 47/47/47 44/44/44
f 10/10/10 12/12/12 47/47/47
f 46/46/46 48/48/48 45/45/45
f 46/46/46 49/49/49 48/48/48
f 47/47/47 49/49/49 46/46/46
f 47/47/47 50/50/50 49/49/49
f 12/12/12 50/50/50 47/47/47
f 12/12/12 14/14/14 50/50/50
f 49/49/49 51/51/51 48/48/48
f 49/49/49 33/33/33 51/51/51
f 50/50/50 33/33/33 49/49/49
f 50/50/50 22/22/22 33/33/33
f 14/14/14 22/22/22 50/50/50
f 14/14/14 16/16/16 22/22/22
f 29/29/29 25/25/25 27/27/27
f 29/29/29 24/24/24 25/25/25
f 31/31/31 24/24/24 29/29/29
f 31/31/31 23/23/23 24/24/24
f 33/33/33 23/23/23 31/31/31
f 33/33/33 22/22/22 23/23/23
f 35/35/35 28/28/28 26/26/26
f 35/35/35 52/52/52 28/28/28
f 37/37/37 52/52/52 35/35/35
f 37/37/37 53/53/53 52/52/52
f 39/39/39 53/53/53 37/37/37
f 39/39/39 41/41/41 53/53/53
f 19/19/19 5/5/5 1/1/1
f 19/19/19 54/54/54 5/5/5
f 17/17/17 54/54/54 19/19/19
f 17/17/17 13/13/13 54/54/54
f 15/15/15 13/13/13 17/17/17
f 54/54/54 7/7/7 5/5/5
f 54/54/54 11/11/11 7/7/7
f 13/13/13 11/11/11 54/54/54
f 55/55/55 56/56/56 57/57/57
f 55/55/55 58/58/58 56/56/56
f 58/58/58 59/59/59 56/56/56
f 58/58/58 60/60/60 59/59/59
f 60/60/60 61/61/61 59/59/59
f 60/60/60 62/62/62 61/61/61
f 62/62/62 63/63/63 61/61/61
f 62/62/62 64/64/64 63/63/63
f 64/64/64 65/65/65 63/63/63
f 64/64/64 66/66/66 65/65/65
f 66/66/66 67/67/67 65/65/65
f 66/66/66 68/68/68 67/67/67
f 68/68/68 69/69/69 67/67/67
f 68/68/68 70/70/70 69/69/69
f 71/71/71 72/72/72 73/73/73
f 71/71/71 74/74/74 72/72/72
f 74/74/74 75/75/75 72/72/72
f 74/74/74 76/76/76 75/75/75
f 76/76/76 77/77/77 75/75/75
f 76/76/76 78/78/78 77/77/77
f 78/78/78 79/79/79 77/77/77
f 78/78/78 80/80/80 79/79/79
f 80/80/80 70/70/70 79/79/79
f 80/80/80 69/69/69 70/70/70
f 41/41/41 52/52/52 53/53/53
f 41/41/41 30/30/30 52/52/52
f 9/9/9 7/7/7 11/11/11
f 28/28/28 52/52/52 30/30/30

v 0.000000 2.511719 0.467285
v -0.313965 4.213867 0.543457
v -0.233887 2.511719 0.404785
v 0.000000 4.213867 0.627930
v 0.233887 2.511719 0.404785
v 0.313965 4.213867 0.543457
v 0.404785 2.511719 0.233887
v 0.543457 4.213867 0.313965
v 0.467285 2.511719 0.000000
v 0.627930 4.213867 0.000000
v 0.404785 2.511719 -0.233887
v 0.543457 4.213867 -0.313965
v 0.233887 2.511719 -0.404785
v 0.313965 4.213867 -0.543457
v 0.000000 2.511719 -0.467285
v 0.000000 4.213867 -0.627930
v -0.233887 2.511719 -0.404785
v -0.313965 4.213867 -0.543457
v -0.404785 2.511719 -0.233887
v -0.543457 4.213867 -0.313965
v -0.438477 9.305176 0.759277
v 0.000000 9.305176 0.876953
v 0.438477 9.305176 0.759277
v 0.759277 9.305176 0.438477
v 0.876953 9.305176 0.000000
v 0.759277 9.305176 -0.438477
v 0.438477 9.305176 -0.759277
v 0.000000 9.305176 -0.876953
v -0.438477 9.305176 -0.759277
v -0.759277 9.305176 -0.438477
v -0.405273 9.500000 0.701660
v 0.000000 9.500000 0.810059
v 0.405273 9.500000 0.701660
v 0.701660 9.500000 0.405273
v 0.810059 9.500000 0.000000
v 0.701660 9.500000 -0.405273
v 0.405273 9.500000 -0.701660
v 0.000000 9.500000 -0.810059
v -0.405273 9.500000 -0.701660
v -0.701660 9.500000 -0.405273
v -0.310059 9.665039 0.537109
v 0.000000 9.665039 0.620117
v 0.310059 9.665039 0.537109
v 0.537109 9.665039 0.310059
v 0.620117 9.665039 0.000000
v 0.537109 9.665039 -0.310059
v 0.310059 9.665039 -0.537109
v 0.000000 9.665039 -0.620117
v -0.310059 9.665039 -0.537109
v -0.537109 9.665039 -0.310059
v -0.167969 9.775391 0.290527
v 0.000000 9.775391 0.335449
v 0.167969 9.775391 0.290527
v 0.290527 9.775391 0.167969
v 0.335449 9.775391 0.000000
v 0.290527 9.775391 -0.167969
v 0.167969 9.775391 -0.290527
v 0.000000 9.775391 -0.335449
v -0.167969 9.775391 -0.290527
v -0.290527 9.775391 -0.167969
v 0.000000 9.813965 0.000000
v 0.167969 9.775391 0.290527
v -0.290527 9.775391 0.167969
v -0.537109 9.665039 0.310059
v -0.701660 9.500000 0.405273
v -0.759277 9.305176 0.438477
v -0.543457 4.213867 0.313965
v -0.404785 2.511719 0.233887
v -0.467285 2.511719 0.000000
v -0.543457 4.213867 -0.313965
v -0.404785 2.511719 -0.233887
v -0.627930 4.213867 0.000000
v -0.759277 9.305176 -0.438477
v -0.876953 9.305176 0.000000
v -0.701660 9.500000 -0.405273
v -0.810059 9.500000 0.000000
v -0.537109 9.665039 -0.310059
v -0.620117 9.665039 0.000000
v -0.290527 9.775391 -0.167969
v -0.335449 9.775391 0.000000
v 0.000000 9.813965 0.000000

vt 0.500000 -2.674805
vt 0.333252 -1.715332
vt 0.333252 -2.674805
vt 0.500000 -1.715332
vt 0.666748 -2.674805
vt 0.666748 -1.715332
vt 0.833252 -2.674805
vt 0.833252 -1.715332
vt 1.000000 -2.674805
vt 1.000000 -1.715332
vt 1.166748 -2.674805
vt 1.166748 -1.715332
vt 1.333252 -2.674805
vt 1.333252 -1.715332
vt 1.500000 -2.674805
vt 1.500000 -1.715332
vt 1.666748 -2.674805
vt 1.666748 -1.715332
vt 1.833252 -2.674805
vt 1.833252 -1.715332
vt 0.333252 1.163086
vt 0.500000 1.163086
vt 0.666748 1.163086
vt 0.833252 1.163086
vt 1.000000 1.163086
vt 1.166748 1.163086
vt 1.333252 1.163086
vt 1.500000 1.163086
vt 1.666748 1.163086
vt 1.833252 1.163086
vt 0.333252 1.266602
vt 0.500000 1.266602
vt 0.666748 1.266602
vt 0.833252 1.266602
vt 1.000000 1.266602
vt 1.166748 1.266602
vt 1.333252 1.266602
vt 1.500000 1.266602
vt 1.666748 1.266602
vt 1.833252 1.266602
vt 0.333252 1.354248
vt 0.500000 1.354248
vt 0.666748 1.354248
vt 0.833252 1.354248
vt 1.000000 1.354248
vt 1.166748 1.354248
vt 1.333252 1.354248
vt 1.500000 1.354248
vt 1.666748 1.354248
vt 1.833252 1.354248
vt 0.333252 1.412842
vt 0.500000 1.412842
vt 0.666748 1.412842
vt 0.833252 1.412842
vt 1.000000 1.412842
vt 1.166748 1.412842
vt 1.333252 1.412842
vt 1.500000 1.412842
vt 1.666748 1.412842
vt 1.833252 1.412842
vt -0.334717 1.433350
vt -0.666748 1.412842
vt 0.166748 1.412842
vt 0.166748 1.354248
vt 0.166748 1.266602
vt 0.166748 1.163086
vt 0.166748 -1.715332
vt 0.166748 -2.674805
vt 0.000000 -2.674805
vt -0.168213 -1.715332
vt -0.168213 -2.674805
vt 0.000000 -1.715332
vt -0.168213 1.163086
vt 0.000000 1.163086
vt -0.168213 1.266602
vt 0.000000 1.266602
vt -0.168213 1.354248
vt 0.000000 1.354248
vt -0.168213 1.412842
vt 0.000000 1.412842
vt 2.000000 1.433350

vn 0.000000 -0.100894 0.994897
vn -0.498715 -0.071350 0.863824
vn -0.497425 -0.100950 0.861613
vn 0.000000 -0.071351 0.997451
vn 0.497425 -0.100950 0.861613
vn 0.498715 -0.071350 0.863824
vn 0.861613 -0.100950 0.497425
vn 0.863824 -0.071350 0.498715
vn 0.994891 -0.100954 0.000000
vn 0.997451 -0.071351 0.000000
vn 0.861613 -0.100950 -0.497425
vn 0.863824 -0.071350 -0.498715
vn 0.497425 -0.100950 -0.861613
vn 0.498715 -0.071350 -0.863824
vn 0.000000 -0.100894 -0.994897
vn 0.000000 -0.071351 -0.997451
vn -0.497425 -0.100950 -0.861613
vn -0.498715 -0.071350 -0.863824
vn -0.861613 -0.100950 -0.497425
vn -0.863824 -0.071350 -0.498715
vn -0.495053 0.140563 0.857417
vn 0.000000 0.140567 0.990071
vn 0.495053 0.140563 0.857417
vn 0.857417 0.140563 0.495053
vn 0.990071 0.140567 0.000000
vn 0.857417 0.140563 -0.495053
vn 0.495053 0.140563 -0.857417
vn 0.000000 0.140567 -0.990071
vn -0.495053 0.140563 -0.857417
vn -0.857417 0.140563 -0.495053
vn -0.414052 0.560593 0.717144
vn 0.000000 0.560616 0.828076
vn 0.414052 0.560593 0.717144
vn 0.717144 0.560593 0.414052
vn 0.828076 0.560616 0.000000
vn 0.717144 0.560593 -0.414052
vn 0.414052 0.560593 -0.717144
vn 0.000000 0.560616 -0.828076
vn -0.414052 0.560593 -0.717144
vn -0.717144 0.560593 -0.414052
vn -0.257745 0.856911 0.446399
vn 0.000000 0.856927 0.515438
vn 0.257745 0.856911 0.446399
vn 0.446399 0.856911 0.257745
vn 0.515438 0.856927 0.000000
vn 0.446399 0.856911 -0.257745
vn 0.257745 0.856911 -0.446399
vn 0.000000 0.856927 -0.515438
vn -0.257745 0.856911 -0.446399
vn -0.446399 0.856911 -0.257745
vn -0.119874 0.970832 0.207643
vn 0.000000 0.970835 0.239749
vn 0.119874 0.970832 0.207643
vn 0.207643 0.970832 0.119874
vn 0.239749 0.970835 0.000000
vn 0.207643 0.970832 -0.119874
vn 0.119874 0.970832 -0.207643
vn 0.000000 0.970835 -0.239749
vn -0.119874 0.970832 -0.207643
vn -0.207643 0.970832 -0.119874
vn 0.000000 1.000000 0.000000
vn 0.119874 0.970832 0.207643
vn -0.207643 0.970832 0.119874
vn -0.446399 0.856911 0.257745
vn -0.717144 0.560593 0.414052
vn -0.857417 0.140563 0.495053
vn -0.863824 -0.071350 0.498715
vn -0.861613 -0.100950 0.497425
vn -0.994897 -0.100894 0.000000
vn -0.863824 -0.071350 -0.498715
vn -0.861613 -0.100950 -0.497425
vn -0.997451 -0.071351 0.000000
vn -0.857417 0.140563 -0.495053
vn -0.990071 0.140567 0.000000
vn -0.717144 0.560593 -0.414052
vn -0.828076 0.560616 0.000000
vn -0.446399 0.856911 -0.257745
vn -0.515438 0.856927 0.000000
vn -0.207643 0.970832 -0.119874
vn -0.239749 0.970835 0.000000
vn 0.000000 1.000000 0.000000

g polygon1
s 1
usemtl mat2
f 81/81/81 82/82/82 83/83/83
f 81/81/81 84/84/84 82/82/82
f 85/85/85 84/84/84 81/81/81
f 85/85/85 86/86/86 84/84/84
f 87/87/87 86/86/86 85/85/85
f 87/87/87 88/88/88 86/86/86
f 89/89/89 88/88/88 87/87/87
f 89/89/89 90/90/90 88/88/88
f 91/91/91 90/90/90 89/89/89
f 91/91/91 92/92/92 90/90/90
f 93/93/93 92/92/92 91/91/91
f 93/93/93 94/94/94 92/92/92
f 95/95/95 94/94/94 93/93/93
f 95/95/95 96/96/96 94/94/94
f 97/97/97 96/96/96 95/95/95
f 97/97/97 98/98/98 96/96/96
f 99/99/99 98/98/98 97/97/97
f 99/99/99 100/100/100 98/98/98
f 84/84/84 101/101/101 82/82/82
f 84/84/84 102/102/102 101/101/101
f 86/86/86 102/102/102 84/84/84
f 86/86/86 103/103/103 102/102/102
f 88/88/88 103/103/103 86/86/86
f 88/88/88 104/104/104 103/103/103
f 90/90/90 104/104/104 88/88/88
f 90/90/90 105/105/105 104/104/104
f 92/92/92 105/105/105 90/90/90
f 92/92/92 106/106/106 105/105/105
f 94/94/94 106/106/106 92/92/92
f 94/94/94 107/107/107 106/106/106
f 96/96/96 107/107/107 94/94/94
f 96/96/96 108/108/108 107/107/107
f 98/98/98 108/108/108 96/96/96
f 98/98/98 109/109/109 108/108/108
f 100/100/100 109/109/109 98/98/98
f 100/100/100 110/110/110 109/109/109
f 102/102/102 111/111/111 101/101/101
f 102/102/102 112/112/112 111/111/111
f 103/103/103 112/112/112 102/102/102
f 103/103/103 113/113/113 112/112/112
f 104/104/104 113/113/113 103/103/103
f 104/104/104 114/114/114 113/113/113
f 105/105/105 114/114/114 104/104/104
f 105/105/105 115/115/115 114/114/114
f 106/106/106 115/115/115 105/105/105
f 106/106/106 116/116/116 115/115/115
f 107/107/107 116/116/116 106/106/106
f 107/107/107 117/117/117 116/116/116
f 108/108/108 117/117/117 107/107/107
f 108/108/108 118/118/118 117/117/117
f 109/109/109 118/118/118 108/108/108
f 109/109/109 119/119/119 118/118/118
f 110/110/110 119/119/119 109/109/109
f 110/110/110 120/120/120 119/119/119
f 112/112/112 121/121/121 111/111/111
f 112/112/112 122/122/122 121/121/121
f 113/113/113 122/122/122 112/112/112
f 113/113/113 123/123/123 122/122/122
f 114/114/114 123/123/123 113/113/113
f 114/114/114 124/124/124 123/123/123
f 115/115/115 124/124/124 114/114/114
f 115/115/115 125/125/125 124/124/124
f 116/116/116 125/125/125 115/115/115
f 116/116/116 126/126/126 125/125/125
f 117/117/117 126/126/126 116/116/116
f 117/117/117 127/127/127 126/126/126
f 118/118/118 127/127/127 117/117/117
f 118/118/118 128/128/128 127/127/127
f 119/119/119 128/128/128 118/118/118
f 119/119/119 129/129/129 128/128/128
f 120/120/120 129/129/129 119/119/119
f 120/120/120 130/130/130 129/129/129
f 122/122/122 131/131/131 121/121/121
f 122/122/122 132/132/132 131/131/131
f 123/123/123 132/132/132 122/122/122
f 123/123/123 133/133/133 132/132/132
f 124/124/124 133/133/133 123/123/123
f 124/124/124 134/134/134 133/133/133
f 125/125/125 134/134/134 124/124/124
f 125/125/125 135/135/135 134/134/134
f 126/126/126 135/135/135 125/125/125
f 126/126/126 136/136/136 135/135/135
f 127/127/127 136/136/136 126/126/126
f 127/127/127 137/137/137 136/136/136
f 128/128/128 137/137/137 127/127/127
f 128/128/128 138/138/138 137/137/137
f 129/129/129 138/138/138 128/128/128
f 129/129/129 139/139/139 138/138/138
f 130/130/130 139/139/139 129/129/129
f 130/130/130 140/140/140 139/139/139
f 141/141/141 132/132/132 142/142/142
f 141/141/141 131/131/131 132/132/132
f 143/143/143 131/131/131 141/141/141
f 143/143/143 121/121/121 131/131/131
f 144/144/144 121/121/121 143/143/143
f 144/144/144 111/111/111 121/121/121
f 145/145/145 111/111/111 144/144/144
f 145/145/145 101/101/101 111/111/111
f 146/146/146 101/101/101 145/145/145
f 146/146/146 82/82/82 101/101/101
f 147/147/147 82/82/82 146/146/146
f 147/147/147 83/83/83 82/82/82
f 148/148/148 83/83/83 147/147/147
f 149/149/149 150/150/150 151/151/151
f 149/149/149 152/152/152 150/150/150
f 148/148/148 152/152/152 149/149/149
f 148/148/148 147/147/147 152/152/152
f 152/152/152 153/153/153 150/150/150
f 152/152/152 154/154/154 153/153/153
f 147/147/147 154/154/154 152/152/152
f 147/147/147 146/146/146 154/154/154
f 154/154/154 155/155/155 153/153/153
f 154/154/154 156/156/156 155/155/155
f 146/146/146 156/156/156 154/154/154
f 146/146/146 145/145/145 156/156/156
f 156/156/156 157/157/157 155/155/155
f 156/156/156 158/158/158 157/157/157
f 145/145/145 158/158/158 156/156/156
f 145/145/145 144/144/144 158/158/158
f 158/158/158 159/159/159 157/157/157
f 158/158/158 160/160/160 159/159/159
f 144/144/144 160/160/160 158/158/158
f 144/144/144 143/143/143 160/160/160
f 161/161/161 139/139/139 140/140/140
f 161/161/161 138/138/138 139/139/139
f 137/137/137 138/138/138 161/161/161
f 134/134/134 161/161/161 133/133/133
f 134/134/134 135/135/135 161/161/161
f 161/161/161 136/136/136 137/137/137
f 161/161/161 135/135/135 136/136/136
f 141/141/141 160/160/160 143/143/143
f 141/141/141 159/159/159 160/160/160

v 0.000000 1.603882 -0.368652
v 0.169556 -1.961914 -0.293579
v 0.000000 -1.961914 -0.338989
v 0.184326 1.603882 -0.319336
v 0.293579 -1.961914 -0.169556
v 0.319336 1.603882 -0.184326
v 0.338989 -1.961914 0.000000
v 0.368652 1.603882 0.000000
v 0.000000 -1.961914 -0.338989
v -0.184326 1.603882 -0.319336
v 0.000000 1.603882 -0.368652
v -0.169556 -1.961914 -0.293579
v -0.319336 1.603882 -0.184326
v -0.293579 -1.961914 -0.169556
v -0.368652 1.603882 0.000000
v -0.338989 -1.961914 0.000000
v -0.319336 1.603882 0.184326
v -0.293579 -1.961914 0.169556
v -0.184326 1.603882 0.319336
v -0.169556 -1.961914 0.293579
v 0.000000 1.603882 0.368652
v 0.000000 -1.961914 0.338989
v 0.184326 1.603882 0.319336
v 0.169556 -1.961914 0.293579
v 0.319336 1.603882 0.184326
v 0.293579 -1.961914 0.169556

vt 1.000000 9.904297
vt 0.916504 0.000000
vt 1.000000 0.000000
vt 0.916504 9.904297
vt 0.833496 0.000000
vt 0.833496 9.904297
vt 0.750000 0.000000
vt 0.750000 9.904297
vt 0.000000 0.000000
vt 0.083496 9.904297
vt 0.000000 9.904297
vt 0.083496 0.000000
vt 0.166504 9.904297
vt 0.166504 0.000000
vt 0.250000 9.904297
vt 0.250000 0.000000
vt 0.333496 9.904297
vt 0.333496 0.000000
vt 0.416504 9.904297
vt 0.416504 0.000000
vt 0.500000 9.904297
vt 0.500000 0.000000
vt 0.583496 9.904297
vt 0.583496 0.000000
vt 0.666504 9.904297
vt 0.666504 0.000000

vn 0.000000 -0.058228 -0.998303
vn 0.500008 -0.008301 -0.865981
vn 0.000000 -0.008301 -0.999966
vn 0.499144 -0.058227 -0.864560
vn 0.865981 -0.008301 -0.500008
vn 0.864560 -0.058227 -0.499144
vn 0.999966 -0.008301 0.000000
vn 0.998303 -0.058228 0.000000
vn 0.000000 -0.008301 -0.999966
vn -0.499144 -0.058227 -0.864560
vn 0.000000 -0.058228 -0.998303
vn -0.500008 -0.008301 -0.865981
vn -0.864560 -0.058227 -0.499144
vn -0.865981 -0.008301 -0.500008
vn -0.998303 -0.058228 0.000000
vn -0.999966 -0.008301 0.000000
vn -0.864560 -0.058227 0.499144
vn -0.865981 -0.008301 0.500008
vn -0.499144 -0.058227 0.864560
vn -0.500008 -0.008301 0.865981
vn 0.000000 -0.058228 0.998303
vn 0.000000 -0.008301 0.999966
vn 0.499144 -0.058227 0.864560
vn 0.500008 -0.008301 0.865981
vn 0.864560 -0.058227 0.499144
vn 0.865981 -0.008301 0.500008

g polygon2
s 1
usemtl mat3
f 162/162/162 163/163/163 164/164/164
f 162/162/162 165/165/165 163/163/163
f 165/165/165 166/166/166 163/163/163
f 165/165/165 167/167/167 166/166/166
f 167/167/167 168/168/168 166/166/166
f 167/167/167 169/169/169 168/168/168
f 170/170/170 171/171/171 172/172/172
f 170/170/170 173/173/173 171/171/171
f 173/173/173 174/174/174 171/171/171
f 173/173/173 175/175/175 174/174/174
f 175/175/175 176/176/176 174/174/174
f 175/175/175 177/177/177 176/176/176
f 177/177/177 178/178/178 176/176/176
f 177/177/177 179/179/179 178/178/178
f 179/179/179 180/180/180 178/178/178
f 179/179/179 181/181/181 180/180/180
f 181/181/181 182/182/182 180/180/180
f 181/181/181 183/183/183 182/182/182
f 183/183/183 184/184/184 182/182/182
f 183/183/183 185/185/185 184/184/184
f 185/185/185 186/186/186 184/184/184
f 185/185/185 187/187/187 186/186/186
f 187/187/187 169/169/169 186/186/186
f 187/187/187 168/168/168 169/169/169

